<?xml version="1.0" standalone="no"?><!DOCTYPE svg PUBLIC "-//W3C//DTD SVG 1.1//EN" "http://www.w3.org/Graphics/SVG/1.1/DTD/svg11.dtd"><svg t="1686241708079" class="icon" viewBox="0 0 1024 1024" version="1.1" xmlns="http://www.w3.org/2000/svg" p-id="4411" xmlns:xlink="http://www.w3.org/1999/xlink" width="200" height="200"><path d="M512.001 60.669c-249.296 0-451.39 202.094-451.39 451.39s202.093 451.39 451.39 451.39 451.39-202.094 451.39-451.39C963.391 262.762 761.297 60.669 512.001 60.669zM512.001 927.337c-229.352 0-415.279-185.927-415.279-415.279S282.649 96.78 512.001 96.78 927.28 282.707 927.28 512.059 741.353 927.337 512.001 927.337zM506.315 174.287c-116.952 0-211.784 94.831-211.784 211.783 0 12.708 10.299 23.033 23.032 23.033 12.708 0 23.02-10.324 23.02-23.033l0 0c0.012-91.536 74.208-165.744 165.732-165.744 91.563 0 165.756 74.208 165.756 165.744 0 91.538-74.194 165.747-165.756 165.747-12.708 0-23.007 10.323-23.007 23.03l0 126.614c0 12.705 10.299 23.008 23.007 23.008 12.733 0 23.033-10.303 23.033-23.008L529.348 596.627c106.137-11.481 188.776-101.37 188.776-210.557C718.123 269.119 623.292 174.287 506.315 174.287zM506.338 763.146c-22.785 0-41.272 18.488-41.272 41.272 0 22.786 18.488 41.272 41.272 41.272 22.806 0 41.283-18.486 41.283-41.272C547.621 781.634 529.144 763.146 506.338 763.146zM512.001 60.554c-249.029 0-450.908 201.878-450.908 450.907 0 249.031 201.879 450.908 450.908 450.908 249.03 0 450.908-201.877 450.908-450.908C962.909 262.432 761.031 60.554 512.001 60.554zM512.001 915.294c-223.031 0-403.832-180.801-403.832-403.833 0-223.03 180.801-403.832 403.832-403.832 223.032 0 403.831 180.802 403.831 403.832C915.833 734.494 735.033 915.294 512.001 915.294z" fill="#ffffff" p-id="4412"></path></svg>