<?xml version="1.0" standalone="no"?><!DOCTYPE svg PUBLIC "-//W3C//DTD SVG 1.1//EN" "http://www.w3.org/Graphics/SVG/1.1/DTD/svg11.dtd"><svg t="1687101602137" class="icon" viewBox="0 0 1024 1024" version="1.1" xmlns="http://www.w3.org/2000/svg" p-id="27198" xmlns:xlink="http://www.w3.org/1999/xlink" width="200" height="200"><path d="M750.250667 696.746667h163.328v-101.418667h-163.328v101.376z m229.546666 179.754666h-397.226666v-55.296h132.394666V719.786667h-132.394666v-22.997334h132.394666v-101.376h-132.394666v-27.648h132.394666V466.346667h-132.394666v-27.733334h132.394666V337.28h-132.394666v-27.605333h132.394666V208.213333h-132.394666V152.96h397.226666v723.541333zM392.874667 682.965333L322.218667 678.4l-52.906667-133.717333-57.386667 124.544-66.261333-4.608 83.882667-152.192L154.538667 346.453333l66.176-4.608 44.117333 124.416h8.789333l48.554667-133.674666 70.613333-4.565334-88.234666 175.104 88.234666 179.797334h0.042667zM988.672 106.88h-392.789333a34.133333 34.133333 0 0 0-13.226667 2.688V0L0 116.053333v791.893334L582.656 1024v-104.106667a34.176 34.176 0 0 0 13.226667 2.730667h392.789333c19.498667 0 35.328-16.554667 35.328-36.864V143.744c0-20.352-15.786667-36.864-35.328-36.864z m-238.421333 714.24h163.328V719.786667h-163.328v101.376z m0-511.488h163.328V208.213333h-163.328v101.376z m0 258.048h163.328V466.346667h-163.328v101.376z m0-129.024h163.328V337.28h-163.328v101.376z" fill="#6ea372" p-id="27199"></path></svg>