<?xml version="1.0" standalone="no"?><!DOCTYPE svg PUBLIC "-//W3C//DTD SVG 1.1//EN" "http://www.w3.org/Graphics/SVG/1.1/DTD/svg11.dtd"><svg t="1687100256451" class="icon" viewBox="0 0 1024 1024" version="1.1" xmlns="http://www.w3.org/2000/svg" p-id="16175" xmlns:xlink="http://www.w3.org/1999/xlink" width="200" height="200"><path d="M98 98h829.99v829.99H98z" fill="#E26EFF" p-id="16176"></path><path d="M141.34 141.04h741.52v741.52H141.34z" fill="#2A0033" p-id="16177"></path><path d="M293.23 320.62h51.8V689.8h-51.8V320.62z m26.66 176.71h118.07c11.17 0 20.99-2.62 29.45-7.87 8.46-5.24 15.02-12.7 19.68-22.34 4.65-9.65 6.98-20.73 6.98-33.26 0-12.7-2.33-23.87-6.98-33.52-4.66-9.65-11.22-17.14-19.68-22.47-8.47-5.33-18.28-8-29.45-8H319.89v-49.26h116.29c22 0 41.39 4.7 58.14 14.09s29.75 22.64 38.98 39.74c9.22 17.1 13.84 36.9 13.84 59.41 0 22.51-4.61 42.28-13.84 59.29-9.23 17.01-22.22 30.18-38.98 39.48-16.76 9.31-36.14 13.96-58.14 13.96H319.89v-49.25zM625.19 426.24h51.8V689.8h-51.8V426.24z m127.71 49.77c-6.94-2.88-14.98-4.32-24.12-4.32-16.42 0-29.16 4.53-38.21 13.58-9.06 9.06-13.58 21.63-13.58 37.71l-5.33-50.78c8.13-15.74 18.62-27.97 31.48-36.69 12.86-8.72 27.08-13.08 42.66-13.08 12.02 0 22.89 1.74 32.63 5.21 9.73 3.47 18.24 8.59 25.52 15.36l-33.77 45.7c-4.58-5.58-10.34-9.81-17.28-12.69z" fill="#E371FF" p-id="16178"></path></svg>