<?xml version="1.0" standalone="no"?><!DOCTYPE svg PUBLIC "-//W3C//DTD SVG 1.1//EN" "http://www.w3.org/Graphics/SVG/1.1/DTD/svg11.dtd"><svg t="1687099288828" class="icon" viewBox="0 0 1024 1024" version="1.1" xmlns="http://www.w3.org/2000/svg" p-id="1786" xmlns:xlink="http://www.w3.org/1999/xlink" width="200" height="200"><path d="M512 6.4L0 108.8l512 166.4 512-160z" fill="#FF3436" p-id="1787"></path><path d="M512 275.2L0 108.8l38.4 684.8 467.2 224z" fill="#720202" p-id="1788"></path><path d="M1024 115.2L512 275.2l-6.4 742.4 486.4-236.8z" fill="#9B0202" p-id="1789"></path><path d="M268.8 320c51.2 25.6 89.6 57.6 115.2 96 25.6 38.4 38.4 76.8 38.4 121.6l-83.2-38.4c0-25.6-12.8-44.8-19.2-64-19.2-12.8-32-25.6-57.6-38.4-25.6-12.8-44.8-12.8-57.6-12.8-12.8 6.4-19.2 12.8-19.2 25.6s6.4 19.2 12.8 32c12.8 12.8 38.4 38.4 76.8 64 44.8 32 70.4 57.6 89.6 76.8 19.2 19.2 32 44.8 44.8 70.4 12.8 25.6 12.8 51.2 12.8 83.2 0 25.6-6.4 44.8-25.6 64-12.8 19.2-32 25.6-57.6 25.6s-57.6-6.4-96-25.6c-44.8-32-89.6-64-115.2-102.4-25.6-38.4-44.8-89.6-44.8-140.8l83.2 32c6.4 32 12.8 57.6 25.6 83.2 12.8 19.2 38.4 38.4 64 51.2 25.6 12.8 51.2 19.2 64 12.8 12.8-6.4 19.2-19.2 25.6-32 0-12.8 0-19.2-6.4-32-12.8-19.2-19.2-32-38.4-44.8-6.4-6.4-32-25.6-64-51.2-44.8-32-76.8-64-96-89.6-25.6-38.4-38.4-76.8-38.4-108.8 6.4-25.6 12.8-44.8 25.6-57.6 12.8-12.8 32-19.2 57.6-19.2 19.2 0 44.8 6.4 83.2 19.2zM896 268.8l51.2-25.6-57.6 473.6-64 25.6-57.6-300.8-51.2 352-64 32-70.4-409.6 57.6-25.6 44.8 281.6 51.2-326.4 64-32 51.2 281.6z" fill="#EBE8EB" p-id="1790"></path></svg>