<?xml version="1.0" standalone="no"?><!DOCTYPE svg PUBLIC "-//W3C//DTD SVG 1.1//EN" "http://www.w3.org/Graphics/SVG/1.1/DTD/svg11.dtd"><svg t="1687101374897" class="icon" viewBox="0 0 1024 1024" version="1.1" xmlns="http://www.w3.org/2000/svg" p-id="24240" xmlns:xlink="http://www.w3.org/1999/xlink" width="200" height="200"><path d="M511.957333 0C231.552 0 4.266667 229.248 4.266667 512c0 282.794667 227.285333 512 507.690666 512 280.362667 0 507.690667-229.205333 507.690667-512 0-282.752-227.328-512-507.733333-512z m0 22.528c129.621333 0 251.52 50.944 343.168 143.36A488.362667 488.362667 0 0 1 997.290667 512c0 130.730667-50.474667 253.653333-142.165334 346.112A480.170667 480.170667 0 0 1 512 1001.472a480.128 480.128 0 0 1-343.210667-143.36A488.405333 488.405333 0 0 1 26.581333 512a488.533333 488.533333 0 0 1 142.165334-346.112A480.085333 480.085333 0 0 1 512 22.528z m-25.386666 180.181333c-82.688 22.186667-159.232 64.682667-261.248 181.674667-102.058667 116.992-82.688 213.589333-82.688 213.589333s28.16-66.474667 95.872-136.490666c32.085333-33.152 56.064-44.245333 72.448-44.288a25.514667 25.514667 0 0 1 26.965333 25.685333v237.525333c0 23.466667-15.104 28.544-29.013333 28.288-11.904-0.213333-22.912-4.352-22.912-4.352 69.546667 101.034667 235.776 115.2 235.776 115.2l73.002666-77.994666 1.706667 1.493333 66.901333 57.002667c122.282667-72.661333 181.248-207.36 181.248-207.36-54.570667 57.728-89.344 71.210667-109.994666 71.125333-18.304-0.128-25.472-10.88-25.472-10.88-0.981333-4.992-2.688-77.226667-3.328-149.546667-0.597333-74.922667-0.042667-149.888 3.712-150.101333 21.077333-39.637333 88.448-119.552 88.448-119.552-125.781333 24.789333-194.389333 107.221333-194.389334 107.221333-20.266667-15.957333-61.610667-13.269333-61.610666-13.269333 19.370667 10.666667 38.698667 41.642667 38.698666 67.328v252.586667s-42.24 37.248-74.752 37.248c-19.242667 0-31.104-10.538667-37.589333-19.157334a50.432 50.432 0 0 1-6.4-11.008V342.741333a27.050667 27.050667 0 0 1-15.488 5.248c-6.912 0-14.08-3.498667-18.944-13.653333-3.669333-7.68-6.016-19.2-6.016-35.925333 0-57.6 65.066667-95.701333 65.066667-95.701334z" p-id="24241" fill="#1296db"></path></svg>