<?xml version="1.0" standalone="no"?><!DOCTYPE svg PUBLIC "-//W3C//DTD SVG 1.1//EN" "http://www.w3.org/Graphics/SVG/1.1/DTD/svg11.dtd"><svg t="1687100286103" class="icon" viewBox="0 0 1024 1024" version="1.1" xmlns="http://www.w3.org/2000/svg" p-id="16535" xmlns:xlink="http://www.w3.org/1999/xlink" width="200" height="200"><path d="M525.94 166.518c-3.902-19.536 1.08-39.786 14.59-60.754 15.978-25.232 34.804-39.078 56.48-41.928 28.072-3.194 54.004 11.722 78.164 44.06 22.384 30.196 32.338 58.622 29.852 84.56-0.364 15.632-23.446 25.222-69.284 28.416-35.892 2.85-61.824-0.708-78.538-11.014-17.402-10.296-27.708-24.858-31.264-43.34z m495.292 790.55c-2.484 5.316-11.35 4.61-26.646-2.14-25.932-12.432-54.71-31.268-87.04-56.854-35.892-28.416-56.862-50.8-62.542-67.15-1.062-3.91-0.7-8.874 1.424-15.27l6.76-18.128c4.61-16.694-1.434-33.388-18.128-50.102-8.164-8.166-19.18-15.976-32.69-23.446-31.612-16.694-77.096-30.902-137.14-42.28-62.188-11.722-121.508-18.472-178.006-19.888l-68.574 3.556c-18.12 20.958-35.522 40.494-52.234 58.612-14.208 14.926-28.054 28.782-41.564 41.574-54.358 48.678-107.29 85.632-159.17 111.208-70.708 34.468-123.648 44.414-159.534 29.134-4.618-3.194-6.042-8.52-4.618-15.988l6.396-19.896c24.516-53.294 64.664-101.972 119.738-146.034 4.618-3.9 9.59-7.458 14.208-11.004 43.704-32.338 102.68-66.444 176.944-101.62 48.668-20.958 88.826-34.814 120.092-41.564l29.488-40.866c11.722-14.562 24.152-28.418 36.592-41.574 26.646-28.78 53.994-55.418 82.792-79.226 2.478-1.07 2.84-2.486 1.406-4.264-14.56-8.166-38.362-23.456-70.688-45.838-27.728-18.826-49.394-31.974-65.038-39.088-49.022-22.02-99.124-15.624-150.632 19.192-30.92 20.604-47.616 43.35-49.392 68.22l-1.78 30.558c1.78 8.52-25.576 22.736-81.712 42.632-10.306 3.196-18.834 6.036-25.94 7.812-12.44 2.486-20.968 2.85-25.224 0.708l-1.424-0.708-3.902-2.486c-4.98-9.944 18.474-44.058 69.992-102.68a536.384 536.384 0 0 1 10.76-11.66l0.12-0.154 0.118-0.08c93.272-98.11 203.276-136.08 329.726-113.524 34.814 6.042 92.392 27.356 173.042 63.602 8.866-8.89 24.162-19.542 45.122-31.628 26.648-15.27 48.668-23.454 65.372-23.798 36.602-0.362 59.684 13.492 69.284 42.274 5.68 17.42-7.114 41.936-38.724 73.554-32.682 33.398-63.602 54.358-92.736 62.876-36.602 11.024-76.396 4.626-118.676-18.462-18.818 14.562-40.14 35.53-63.24 62.168-1.062 1.07-2.132 2.486-3.194 3.556l-54.71 65.38-0.716 4.61 37.662-1.414c27.002 0.716 54.358 5.324 82.43 14.208 76.396 24.516 140.344 54.71 191.852 90.606a551.616 551.616 0 0 1 70.714 59.682c23.092 23.446 45.474 49.74 66.434 78.52 18.492 25.596 34.116 51.518 47.254 77.458 18.478 36.25 25.218 61.826 19.892 77.114zM741.264 334.578c6.75 5.326 22.736 7.466 48.678 6.396 28.77-1.07 48.322-6.75 59.328-17.766 5.336-5.334 5.336-10.66-0.708-15.632-6.75-6.042-19.182-7.458-36.946-4.98-15.28 2.486-31.628 7.812-49.386 15.996-17.41 8.166-24.522 13.5-20.966 15.986zM353.63 674.948l-8.174-1.06c-24.516 4.98-47.254 10.66-68.212 17.066-29.486 9.582-56.852 20.596-82.074 33.026a477.528 477.528 0 0 0-56.49 31.622c-55.436 35.884-81.014 70.716-76.396 104.458l5.334 6.042c14.562 9.6 43.342 2.13 85.976-22.384 57.924-33.742 109.786-73.538 155.624-119.738 15.28-15.634 30.196-31.974 44.412-49.032z" fill="" p-id="16536"></path></svg>