<?xml version="1.0" standalone="no"?><!DOCTYPE svg PUBLIC "-//W3C//DTD SVG 1.1//EN" "http://www.w3.org/Graphics/SVG/1.1/DTD/svg11.dtd"><svg t="1687160601719" class="icon" viewBox="0 0 1024 1024" version="1.1" xmlns="http://www.w3.org/2000/svg" p-id="4523" xmlns:xlink="http://www.w3.org/1999/xlink" width="200" height="200"><path d="M677.720857 371.147018c0-91.64321-74.28589-165.928077-165.928077-165.928077s-165.928077 74.28589-165.928077 165.928077S420.149571 537.075095 511.79278 537.075095 677.720857 462.789205 677.720857 371.147018zM382.737496 371.147018c0-71.26202 57.776891-129.055285 129.055285-129.055285 71.279417 0 129.055285 57.794287 129.055285 129.055285 0 71.278393-57.775868 129.055285-129.055285 129.055285C440.513364 500.202303 382.737496 442.425412 382.737496 371.147018zM806.776142 371.147018c0-162.903184-132.061758-294.984385-294.984385-294.984385S216.808396 208.242811 216.808396 371.147018s294.984385 516.222161 294.984385 516.222161S806.776142 534.050202 806.776142 371.147018zM511.79278 113.035426c142.540414 0 258.110569 115.552759 258.110569 258.111592 0 142.558833-258.110569 460.912461-258.110569 460.912461S253.681188 513.704828 253.681188 371.147018C253.681188 228.588185 369.251344 113.035426 511.79278 113.035426zM642.187573 769.187547c-8.074909 11.081383-15.950274 21.710464-23.52274 31.794124 78.722946 9.06854 132.801609 27.838022 132.801609 49.513694 0 30.53648-107.304911 55.3097-239.674685 55.3097-132.36875 0-239.674685-24.77322-239.674685-55.3097 0-21.675672 54.079686-40.444131 132.802632-49.513694-7.572466-10.083659-15.448854-20.712741-23.52274-31.794124-86.981027 15.531741-146.152684 46.113247-146.152684 81.307817 0 50.916647 123.81698 92.182492 276.5485 92.182492s276.547477-41.265846 276.547477-92.182492C788.340257 815.300794 729.1686 784.719288 642.187573 769.187547z" fill="#1296db" p-id="4524"></path></svg>